<svg xmlns="http://www.w3.org/2000/svg" width="16" height="16" viewBox="0 0 16 16">
  <path d="M3 0v5l-.667-.667-.166.167-.834-1.333C1.03 2.68-.333 4.25.167 4.5l1.333.667-.167.166L3 7v1h-.333c-.167 0-.334.167-.334.333v2a.36.36 0 0 0 .334.334v5c0 .166.166.333.333.333h13V3l-3-3zm1 1h8v3h3v11H9.333v-4.333a.358.358 0 0 0 .334-.334v-2A.358.358 0 0 0 9.333 8h-.666l2.5-2.5L11 5.333l1.167-.833c.316-.178-.986-1.457-1.167-1.167l-.833 1.334L10 4.5 6.667 7.667v-5h-.334l.334-1.334c.181-.45-2.057-.44-2 0L5 2.667h-.333v4L4 6z" fill-rule="evenodd"/>
</svg>
