<?xml version="1.0" encoding="UTF-8" standalone="no"?>
<!-- Created with Inkscape (http://www.inkscape.org/) -->

<svg
   width="64.0px"
   height="64.0px"
   viewBox="0 0 64.0 64.0"
   version="1.1"
   id="SVGRoot"
   sodipodi:docname="manual-takeback.svg"
   inkscape:version="1.3.2 (091e20e, 2023-11-25, custom)"
   xmlns:inkscape="http://www.inkscape.org/namespaces/inkscape"
   xmlns:sodipodi="http://sodipodi.sourceforge.net/DTD/sodipodi-0.dtd"
   xmlns:xlink="http://www.w3.org/1999/xlink"
   xmlns="http://www.w3.org/2000/svg"
   xmlns:svg="http://www.w3.org/2000/svg">
  <sodipodi:namedview
     id="namedview1054"
     pagecolor="#505050"
     bordercolor="#ffffff"
     borderopacity="1"
     inkscape:showpageshadow="true"
     inkscape:pageopacity="0"
     inkscape:pagecheckerboard="true"
     inkscape:deskcolor="#505050"
     inkscape:document-units="px"
     showgrid="false"
     inkscape:zoom="5.6568543"
     inkscape:cx="25.721009"
     inkscape:cy="28.37266"
     inkscape:current-layer="g7"
     inkscape:window-width="1920"
     inkscape:window-height="1009"
     inkscape:window-x="-8"
     inkscape:window-y="-8"
     inkscape:window-maximized="1"
     inkscape:clip-to-page="false">
    <inkscape:grid
       type="xygrid"
       id="grid1540"
       empspacing="8"
       originx="0"
       originy="0"
       spacingy="1"
       spacingx="1"
       units="px"
       visible="false"
       empcolor="#0099e5"
       empopacity="0.55686275"
       color="#0099e5"
       opacity="0.29803922" />
  </sodipodi:namedview>
  <defs
     id="defs1049" />
  <g
     inkscape:groupmode="layer"
     id="layer2"
     inkscape:label="Layer 2">
    <path
       style="display:none;fill:#e5acff;stroke:#1a1a1a;-inkscape-stroke:none"
       d="m 30,64 c -0.29081,-0.140522 -0.199489,-0.592397 -0.396641,-0.78955 -0.693901,-0.693901 -1.545687,-1.20279 -2.30518,-1.819878 -0.691857,-0.562134 -1.150918,-1.413678 -1.759216,-2.062529 -0.914794,-0.975781 -1.981487,-1.849973 -2.729818,-2.972469 -0.38673,-0.580095 -0.75543,-1.208066 -1.091927,-1.819878 -0.01328,-0.02415 -0.514149,-0.953211 -0.606626,-1.091928 -0.112165,-0.168247 -0.262662,-0.310304 -0.363976,-0.485301 -0.122418,-0.211449 -0.194045,-0.448753 -0.303313,-0.667288 -0.240777,-0.481554 -0.497824,-1.003563 -0.788614,-1.455903 -0.140031,-0.217826 -0.329929,-0.399464 -0.485301,-0.606626 -0.319143,-0.425524 -0.568228,-0.8849 -0.849277,-1.334578 -0.184657,-0.295453 -0.39175,-0.540849 -0.545963,-0.849277 -0.01279,-0.02558 -0.05162,-0.03353 -0.06066,-0.06066 -0.01279,-0.03837 0.01279,-0.08296 0,-0.121326 -0.02395,-0.07186 -0.147881,-0.113775 -0.181988,-0.181987 -0.08916,-0.178325 0.04777,-0.640408 0.06066,-0.788615 0.05791,-0.666 0.09977,-1.3337 0.121325,-2.001866 0.06388,-1.9803 -0.117839,-3.97183 0.121325,-5.944937 0.05403,-0.445714 0.1263,-0.889068 0.181988,-1.334577 0.05041,-0.403296 0.05451,-0.812348 0.121325,-1.213253 0.102282,-0.61369 0.162348,-0.422341 0.303314,-1.091927 0.185588,-0.881544 0.115415,-1.799195 0.363975,-2.669155 0.09765,-0.341759 0.01339,0.03388 0.121326,-0.181988 0.01838,-0.03676 0.03524,-0.156568 0.06066,-0.181988 0.113979,-0.113979 0.327654,-0.300917 0.485301,-0.363976 0.118741,-0.0475 0.252938,-0.05787 0.363976,-0.121325 0.35318,-0.201817 0.761221,-0.80329 1.213252,-0.727951 0.496335,0.08272 0.974422,0.38547 1.455903,0.545963 0.578569,0.192856 1.239813,0.403816 1.577228,0.909939 0.245525,0.368287 -0.174628,-0.189942 0.121325,0.303314 0.02943,0.04904 0.09295,0.07167 0.121326,0.121325 0.283555,0.08901 0.06665,0.287957 0.121325,0.424638 0.02708,0.06769 0.08872,0.116778 0.121325,0.181988 0.112377,0.224754 0.149222,0.49438 0.242651,0.727951 0.01679,0.04198 0.04044,0.08088 0.06066,0.121326 0.04044,0.04044 0.09575,0.07017 0.121326,0.121325 0.07779,0.155573 0.002,0.608593 0.06066,0.667289 0.0143,0.0143 0.04636,-0.0143 0.06066,0 0.0123,0.0123 0.0123,0.291016 0,0.303313 -0.0143,0.0143 -0.04637,-0.0143 -0.06066,0 -0.08803,0.08803 0.08989,0.754961 0.121325,0.849277 0.0182,0.0546 -0.0182,0.127391 0,0.181987 0.009,0.02713 0.05162,0.03353 0.06066,0.06066 0.01279,0.03837 -0.01279,0.08296 0,0.121325 0.009,0.02713 0.05004,0.03411 0.06066,0.06066 0.06783,0.169573 0.125326,0.375979 0.181988,0.545963 0.04289,0.128685 0.139092,0.235291 0.181987,0.363976 0.01279,0.03837 -0.01809,0.08515 0,0.121325 0.02558,0.05116 0.09575,0.07017 0.121326,0.121326 0.01809,0.03617 -0.0079,0.08167 0,0.121325 0.03634,0.181685 0.123344,0.370032 0.181987,0.545963 0.08356,0.250671 0.205744,0.484029 0.303314,0.727952 0.07678,0.191949 0.08282,0.353414 0.121325,0.545964 0.0266,0.133011 0.139093,0.23529 0.181988,0.363975 0.01279,0.03837 0,0.08088 0,0.121325 0.04044,0.101105 0.08309,0.201354 0.121325,0.303314 0.20229,0.539439 0.419769,0.791714 0.788614,1.213252 0.234777,0.268316 0.451431,0.55818 0.727951,0.788614 0.431035,0.359195 0.908041,0.665661 1.334578,1.031265 0.217122,0.186104 0.392892,0.41664 0.606626,0.606626 0.256961,0.228409 0.514099,0.461402 0.788614,0.667289 0.08976,0.06732 0.149408,0.180488 0.242651,0.24265 0.03762,0.02508 0.08935,0.02869 0.121325,0.06066 0.0143,0.0143 -0.0143,0.04636 0,0.06066 0.05155,0.05155 0.116778,0.08872 0.181988,0.121326 0.03617,0.01809 0.09273,-0.0286 0.121325,0 0.0143,0.0143 -0.02022,0.06066 0,0.06066 0.04044,0 0,-0.08088 0,-0.121325 0,-0.263178 0.07709,-0.462556 0.121325,-0.727951 0.01662,-0.09973 -0.02777,-0.206099 0,-0.303314 0.211082,-0.738787 0.05364,0.166989 0.181988,-0.667288 0.0939,-0.610341 0.147907,-1.206426 0.181988,-1.819879 -0.0033,-0.36825 0.09982,-0.726344 0.121325,-1.091927 0.04136,-0.703091 -0.06363,-1.370241 -0.121325,-2.062529 -0.03523,-0.422803 -0.03243,-0.850396 -0.06066,-1.273915 -0.03139,-0.470821 -0.268237,-1.609428 -0.303313,-1.819879 -0.163486,-0.98092 -0.159254,-2.000041 -0.363975,-2.972468 -0.15158,-0.555793 -0.196226,-0.677817 -0.303313,-1.213253 -0.07507,-0.375347 -0.160048,-0.733763 -0.303314,-1.091927 -0.264421,-0.661054 -0.542895,-1.329464 -0.909939,-1.941204 -0.268773,-0.447955 -0.685188,-0.771906 -1.031264,-1.15259 -0.312796,-0.344074 -0.63095,-0.71994 -0.90994,-1.091927 -0.337966,-0.450621 -0.140949,-0.300436 -0.545963,-0.727951 -0.334342,-0.352917 -0.647527,-0.732802 -1.031265,-1.031265 -0.09307,-0.07239 -0.216397,-0.102315 -0.303313,-0.181988 -0.30865,-0.282929 -0.596275,-0.693928 -0.849277,-1.031264 -0.122762,-0.163683 0.001,-0.09941 -0.121325,-0.303313 -0.02943,-0.04904 -0.0896,-0.07374 -0.121325,-0.121325 -0.01122,-0.01683 0.0143,-0.04637 0,-0.06066 -0.0143,-0.0143 -0.04636,0.0143 -0.06066,0 -0.0143,-0.0143 0.0143,-0.04636 0,-0.06066 -0.0143,-0.0143 -0.04636,0.0143 -0.06066,0 -0.0143,-0.0143 0.0143,-0.04636 0,-0.06066 -0.0143,-0.0143 -0.04637,0.0143 -0.06066,0 -0.0143,-0.0143 0.0143,-0.04636 0,-0.06066 -0.03265,-0.03265 -0.287452,0.137187 -0.363976,0.06066 -0.125513,-0.125513 0.191801,0.0049 -0.06066,-0.121326 -0.05589,-0.02794 -0.385907,-0.22585 -0.424639,-0.303313 -0.08926,-0.178518 0.14053,0.07987 -0.06066,-0.121325 -0.330966,-0.330966 -0.900594,-0.998639 -0.727952,-1.516565 0.07056,-0.211689 8.89e-4,-0.427305 0.06066,-0.606627 0.009,-0.02713 0.04044,-0.04044 0.06066,-0.06066 0.02022,-0.101105 0.04371,-0.20161 0.06066,-0.303313 0.0066,-0.03989 -0.01809,-0.08515 0,-0.121326 0.07264,-0.145271 0.243314,-0.104087 0.363976,-0.121325 0.08254,-0.01179 0.159921,-0.05032 0.24265,-0.06066 0.397627,-0.0497 0.925645,0.156429 1.334578,0.181987 0.443948,0.02775 0.891866,0.02042 1.334578,0.06066 0.210245,0.01911 0.401817,0.130786 0.606626,0.181988 0.100028,0.02501 0.206771,0.02446 0.303313,0.06066 0.45211,0.169541 0.679996,0.617215 1.031265,0.909939 0.278734,0.232279 0.626625,0.319312 0.909939,0.545963 0.399399,0.31952 0.750279,0.709416 1.15259,1.031265 0.07092,0.110088 0.208987,0.111244 0.303313,0.181988 0.376437,0.282328 0.710937,0.637804 1.091927,0.909939 0.07359,0.05256 0.167408,0.07116 0.24265,0.121325 0.327259,0.218173 -0.04178,0.01888 0.181988,0.242651 0.05155,0.05155 0.130435,0.06977 0.181988,0.121325 0.364734,0.364734 0.596572,0.831681 0.849277,1.273915 0.24265,0.424639 0,-0.121325 0.363975,0.545964 0.135942,0.249226 0.190806,0.535472 0.303314,0.788614 0.18728,0.421381 0.499394,0.813278 0.727951,1.213252 0.157651,0.275889 0.575325,1.11353 0.606626,1.39524 0.03263,0.293691 0.02525,0.561047 0.121325,0.849277 0.06139,0.184157 0.195837,0.358709 0.242651,0.545964 0.03864,0.154551 0.0542,0.290382 0.121325,0.424638 0.02525,0.05051 -0.03848,0.204172 0,0.242651 0.0143,0.0143 0.04636,-0.0143 0.06066,0 0.0143,0.0143 0,0.04044 0,0.06066 0,0.165252 0.07056,0.526165 0,0.667289 -0.08926,0.178519 -0.06066,-0.09417 -0.06066,0.181988 0,0.100861 0.04617,0.392955 0,0.485301 -0.009,0.01809 -0.04636,-0.0143 -0.06066,0 -0.01252,0.01251 -0.08264,0.683994 -0.06066,0.727951 0.1908,0.3816 0.200261,0.898007 0.363976,1.334578 0.0256,0.06826 0.08872,0.116777 0.121325,0.181988 0.199438,0.398877 -0.05279,-0.03312 0.06066,0.363976 0.02484,0.08695 0.08774,0.158687 0.121325,0.24265 0.0475,0.118741 0.06413,0.249589 0.121325,0.363976 0.130264,0.260527 0.883793,1.034054 1.15259,1.213252 0.052,0.03466 0.162991,0.213852 0.24265,0.181988 0.24717,-0.09887 0.381638,-0.634272 0.424639,-0.849277 0.213936,-1.06968 0.22232,-2.076739 0.06066,-3.154456 -0.143287,-0.955245 -0.546852,-1.822543 -0.849276,-2.729818 -0.227446,-0.682335 -0.249178,-1.394761 -0.545964,-2.062529 -0.194689,-0.438051 -0.463176,-0.840175 -0.667289,-1.273915 -0.208238,-0.442506 -0.286403,-0.919281 -0.545963,-1.334578 -0.268202,-0.429122 -0.519055,-0.888655 -0.849277,-1.273915 -0.150831,-0.17597 -0.317699,-0.275658 -0.485301,-0.424638 -0.192361,-0.170987 -0.350554,-0.37847 -0.545964,-0.545964 -0.312414,-0.267783 -0.650007,-0.524361 -0.909939,-0.849276 -0.148762,-0.185953 -0.224759,-0.421004 -0.363976,-0.606626 -0.05147,-0.06863 -0.143621,-0.105256 -0.181988,-0.181988 -0.04603,-0.09205 -0.05586,-0.20512 -0.121325,-0.303313 -0.03933,-0.059 -0.159828,-0.115509 -0.181988,-0.181988 -0.01279,-0.03837 0.01279,-0.08296 0,-0.121326 -0.05576,-0.167294 -0.354265,-0.35912 -0.485301,-0.424638 -0.09629,-0.04814 -0.141956,-0.202618 -0.181987,-0.24265 -0.03972,-0.03972 -0.140189,-0.03773 -0.181988,-0.121326 -0.009,-0.01809 0.0143,-0.04636 0,-0.06066 -0.0286,-0.0286 -0.09273,0.0286 -0.121326,0 -0.0143,-0.0143 0.0143,-0.04637 0,-0.06066 -0.0033,-0.0033 -0.1787,-0.118038 -0.181987,-0.121325 -0.0543,-0.0543 -0.152864,-0.337265 -0.181988,-0.424638 -0.149624,-0.448871 -0.242054,-0.54835 -0.121326,-1.031265 0.0098,-0.03923 -0.02243,-0.08768 0,-0.121325 0.02508,-0.03762 0.0942,-0.02449 0.121326,-0.06066 0.03837,-0.05116 0.03207,-0.124794 0.06066,-0.181988 0.123127,-0.246252 1.08708,-1.046519 1.334578,-1.152589 0.121325,-0.04044 0.24265,-0.08088 0.363976,-0.121326 0.02022,0 0.04104,0.0049 0.06066,0 0.467689,-0.116922 0.897399,-0.30488 1.395241,-0.24265 0.548834,0.0686 1.029129,0.302245 1.516565,0.545963 0.429078,0.214539 0.866009,0.412348 1.273915,0.667289 0.618699,0.386687 1.22167,0.960202 1.698553,1.516566 0.349034,0.407206 0.636376,0.856131 0.970602,1.273915 0.153198,0.191497 0.323051,0.360534 0.485301,0.545963 0.169724,0.19397 0.309596,0.491584 0.485301,0.667289 0.310009,0.310009 -0.08461,-0.254357 0.242651,0.181988 0.03837,0.05116 0.01545,0.136773 0.06066,0.181988 0.03197,0.03197 0.08935,0.02869 0.121326,0.06066 0.06394,0.06395 0.06707,0.170307 0.121325,0.242651 0.126836,0.169114 0.297802,0.316187 0.424638,0.485301 0.20228,0.269706 0.315147,0.626349 0.485301,0.909939 0.02943,0.04904 0.0919,0.07228 0.121325,0.121325 0.0329,0.05483 0.02894,0.126469 0.06066,0.181988 0.05016,0.08778 0.131826,0.154868 0.181988,0.242651 0.08572,0.150004 0.11182,0.327424 0.181988,0.485301 0.161716,0.36386 0.367296,0.708413 0.485301,1.091927 0.129584,0.421147 0.193385,0.864498 0.363975,1.273915 0.206238,0.49497 0.151237,0.21106 0.303314,0.667289 0.187727,0.563183 0.332444,1.143403 0.545963,1.698553 0.03246,0.0844 0.09534,0.156034 0.121325,0.242651 0.03534,0.117811 0.02532,0.246164 0.06066,0.363975 0.02599,0.08662 0.09534,0.156034 0.121325,0.242651 0.07069,0.235623 0.06166,0.489299 0.121326,0.727951 0.141304,0.565218 0.118493,0.156506 0.181987,0.727952 0.09754,0.877879 0.213246,1.762922 0.424639,2.608492 0.07802,0.312095 0,0.764806 0,1.091928 0,0.567099 -0.06066,1.065299 -0.06066,1.63789 0,0.08285 0.04157,0.485301 0.06066,0.485301 0.0045,0 -0.0056,-0.170857 0,-0.181988 0.05216,-0.104314 0.06917,-0.198998 0.121325,-0.303313 0.01809,-0.03617 -0.01809,-0.08515 0,-0.121325 0.03533,-0.07066 0.08599,-0.111324 0.121325,-0.181988 0.04521,-0.09043 -0.01662,-0.203584 0,-0.303313 0.0074,-0.0446 0.0497,-0.07746 0.06066,-0.121325 0.07951,-0.318031 0,-1.111827 0,-1.455903 0,-0.355239 0.06217,-0.900865 0,-1.273915 -0.0242,-0.145207 -0.09837,-0.27923 -0.121325,-0.424638 -0.07282,-0.461213 -0.04596,-0.941823 -0.181988,-1.395241 -0.132673,-0.442243 -0.129345,-0.176297 -0.242651,-0.667288 -0.16514,-0.715608 -0.279791,-1.477363 -0.667289,-2.123192 -0.259385,-0.432309 -0.49362,-0.921587 -0.788614,-1.334578 -0.04986,-0.06981 -0.132123,-0.112178 -0.181988,-0.181988 -0.296666,-0.415333 0.04391,-0.08076 -0.24265,-0.424638 -0.174263,-0.209115 -0.360389,-0.417464 -0.485301,-0.667289 -0.05719,-0.114386 -0.06413,-0.249589 -0.121325,-0.363976 -0.132874,-0.265748 -0.292601,-0.524538 -0.424639,-0.788614 -0.198471,-0.396943 -0.03499,0.03851 -0.303313,-0.363975 -0.156526,-0.23479 -0.204742,-0.549765 -0.363975,-0.788614 -0.329354,-0.49403 0.14738,0.372727 -0.303313,-0.303314 -0.03547,-0.0532 -0.02776,-0.127156 -0.06066,-0.181987 -0.02943,-0.04904 -0.0856,-0.07666 -0.121325,-0.121326 -0.136635,-0.170793 -0.229694,-0.373314 -0.363976,-0.545963 -0.190689,-0.245172 -0.404483,-0.492118 -0.606626,-0.727952 -0.206664,-0.241107 -0.502746,-0.453713 -0.667289,-0.727951 -0.0329,-0.05483 -0.02776,-0.127156 -0.06066,-0.181988 -0.05885,-0.09809 -0.183799,-0.144565 -0.24265,-0.24265 -0.0329,-0.05483 -0.02776,-0.127157 -0.06066,-0.181988 -0.125972,-0.209954 -0.337869,-0.349388 -0.485301,-0.545964 -0.043,-0.05733 -0.162871,-0.344859 -0.181988,-0.363976 -0.03197,-0.03197 -0.08935,-0.02869 -0.121325,-0.06066 -0.0062,-0.0062 -0.05313,-0.23135 -0.06066,-0.242651 -0.170623,-0.255933 0.104107,0.329541 -0.181988,-0.24265 -0.03124,-0.06249 -0.07886,-0.260843 -0.121326,-0.303313 -0.0143,-0.0143 -0.04636,0.0143 -0.06066,0 -0.02022,-0.02022 -0.04044,-0.161767 -0.06066,-0.181988 -0.0143,-0.0143 -0.04636,0.0143 -0.06066,0 -0.03663,-0.03663 0,-0.306448 0,-0.363976 0,-0.07286 -0.03189,-0.239526 0,-0.303313 0.02558,-0.05116 0.103239,-0.06707 0.121325,-0.121325 0.01918,-0.05755 -0.01918,-0.124438 0,-0.181988 0.03262,-0.09785 0.427017,-0.689096 0.485301,-0.727952 0.03055,-0.133649 0.124794,-0.03206 0.181988,-0.06066 0.196039,-0.09802 0.382939,-0.247391 0.606626,-0.303313 0.808592,-0.202148 1.733336,0.0409 2.487167,0.363975 0.018,0.0077 0.341817,0.126774 0.424639,0.181988 0.06935,0.04623 0.110602,0.139157 0.181987,0.181988 0.151448,0.09087 0.33757,0.144163 0.485301,0.242651 0.143627,0.09575 0.281012,0.207562 0.424639,0.303313 0.0532,0.03547 0.136772,0.01545 0.181988,0.06066 0.0143,0.0143 -0.0143,0.04637 0,0.06066 0.0143,0.0143 0.04258,-0.009 0.06066,0 0.166565,0.08328 0.270089,0.321606 0.424639,0.424638 0.183143,0.122096 0.419549,0.295679 0.545963,0.485301 0.170959,0.256439 0.424346,0.515193 0.606626,0.788614 0.262908,0.394361 0.448713,0.822319 0.727952,1.213253 0.627581,0.878614 -0.223926,-0.310238 0.363976,0.424638 0.142963,0.178705 0.226465,0.423279 0.363975,0.606626 0.07678,0.102374 0.239896,0.192333 0.303313,0.303313 0.02572,0.04501 0.119298,0.330604 0.181988,0.424639 0.04789,0.07183 0.155747,0.163928 0.181988,0.24265 0.03443,0.103279 0.02646,0.200695 0.06066,0.303313 0.07331,0.21992 0.02878,0.04317 0.121325,0.181988 0.09459,0.141884 0.246178,0.495884 0.303313,0.667289 0.169465,0.508394 0.405085,1.012714 0.606626,1.516566 0.08065,0.201624 0.06117,0.396091 0.121325,0.606626 0.120469,0.42164 0.375635,0.832884 0.424639,1.273915 0.01116,0.100486 -0.02853,0.206317 0,0.303313 0.07417,0.25219 0.215824,0.480066 0.303313,0.727951 0.03432,0.09723 0.04044,0.202209 0.06066,0.303313 0.06066,0.181988 0.113124,0.366918 0.181987,0.545964 0.03246,0.0844 0.08088,0.161767 0.121326,0.242651 0.101104,0.303313 0.202208,0.606626 0.303313,0.909939 0.212621,0.637865 0.333627,1.326957 0.606626,1.941204 0.221839,0.499137 0.503264,0.991686 0.667289,1.516565 0.05561,0.177941 0.07106,0.366441 0.121325,0.545964 0.09139,0.32641 0.215192,0.643293 0.303313,0.970602 0.05361,0.199122 0.06314,0.408792 0.121325,0.606626 0.183298,0.623212 0.615549,1.273017 0.424639,1.941204 -0.03459,0.121068 -0.05494,0.239791 -0.181988,0.303313 -0.01809,0.009 0.01122,-0.04384 0,-0.06066 -0.03173,-0.04759 -0.0856,-0.07666 -0.121325,-0.121325 -0.209418,-0.261772 -0.154544,-0.398617 -0.181988,-0.727951 -0.01022,-0.122574 -0.04044,-0.242651 -0.06066,-0.363976 0,-0.141546 0.0079,-0.28331 0,-0.424639 -0.05764,-1.037543 -0.359521,-1.893224 -0.727951,-2.851143 -0.472357,-1.228128 -1.266842,-2.043758 -2.001867,-3.093793 -0.423327,-0.604754 -0.794864,-1.230131 -1.15259,-1.880542 -0.238342,-0.43335 -0.370917,-0.879457 -0.545963,-1.334577 -0.111029,-0.288675 -0.255544,-0.560125 -0.363976,-0.849277 -0.163922,-0.437126 -0.212279,-0.940068 -0.303313,-1.39524 -0.128187,-0.640935 -0.343767,-1.294234 -0.424638,-1.941204 -0.05248,-0.419814 -0.111361,-0.85015 -0.181988,-1.273915 -0.07072,-0.424322 -0.168438,-0.782153 -0.06066,-1.213252 0.01517,-0.06066 -0.03033,-0.121326 0,-0.181988 0.009,-0.01809 0.04258,0.009 0.06066,0 0.132483,-0.06624 0.330868,-0.312114 0.424638,-0.424639 0.111328,-0.133593 0.149413,-0.284781 0.242651,-0.424638 0.0578,-0.0867 0.197532,-0.07621 0.24265,-0.121325 0.0143,-0.0143 -0.01809,-0.05162 0,-0.06066 0.114183,-0.05709 0.396174,0.04581 0.485301,0.06066 0.179725,0.02995 0.325772,0.0075 0.485301,0.06066 0.333493,0.111165 0.495156,0.373831 0.727951,0.606627 0.0982,0.0982 0.266197,0.205534 0.363976,0.303313 0.315786,0.315785 0.510821,0.744685 0.788614,1.091927 0.360868,0.451084 0.782553,0.839578 1.091927,1.334578 0.09329,0.149258 0.113683,0.325921 0.181988,0.4853 0.141518,0.330207 0.359222,0.634391 0.485301,0.970602 0.344818,0.919514 -0.428052,-0.808257 0.242651,0.667289 0.135649,0.298429 0.313205,0.603498 0.424638,0.90994 0.156357,0.429981 0.218363,0.897738 0.363976,1.334577 0.163632,0.490898 0.369106,0.969544 0.545963,1.455903 0.08741,0.240377 0.144275,0.491851 0.242651,0.727952 0.196362,0.471269 0.45126,0.93232 0.667289,1.39524 0.812976,1.742092 -0.108755,-0.229716 0.545963,0.970602 0.262904,0.48199 0.421717,1.02542 0.667289,1.516565 0.05273,0.105459 0.137095,0.194287 0.181988,0.303313 0.579485,1.407322 0.144222,0.281605 0.24265,0.970602 0.06662,0.466356 0.04469,-0.116584 0.181988,0.363976 0.02222,0.07777 -0.01144,0.16258 0,0.24265 0.01809,0.126603 0.100301,0.237828 0.121326,0.363976 0.05047,0.302851 0.130656,0.601951 0.181987,0.909939 0.05321,0.319273 0.01482,0.649689 0.06066,0.970602 0.03825,0.267786 0.137883,0.523982 0.181988,0.788614 0.03277,0.196604 -0.02819,0.409309 0,0.606627 0.009,0.0633 0.05015,0.118914 0.06066,0.181988 0.02625,0.157494 -0.01982,0.326713 0,0.4853 0.08381,0.67048 0.128126,1.44856 0.06066,2.123192 -0.109709,1.097093 -0.287012,2.174773 -0.424638,3.275782 -0.02257,0.180582 0.01811,0.364879 0,0.545963 -0.01026,0.102595 -0.04787,0.201003 -0.06066,0.303313 -0.03429,0.274291 0,0.571742 0,0.849277 0,0.68751 0,1.375019 0,2.062529 0,0.801059 0.01983,-0.198282 -0.06066,0.606626 -0.03605,0.360443 0.03009,0.730862 0,1.091927 -0.01022,0.122574 -0.06066,0.240977 -0.06066,0.363976 0,0.142983 0.0497,0.282077 0.06066,0.424639 0.03279,0.426274 0.08563,0.845521 0.121325,1.273915 0.07141,0.856934 0.157606,1.697392 0.24265,2.54783 0.03366,0.336571 0,0.692038 0,1.031264 0,0.606626 0,1.213253 0,1.819879 0,0.334878 0.01921,0.638971 0.06066,0.970602 0.01505,0.120388 -0.01716,0.24387 0,0.363975 0.01179,0.08254 0.05237,0.159692 0.06066,0.242651 0.03193,0.31931 -0.0398,0.652222 0,0.970602 0.02062,0.164927 0.08224,0.328946 0.121326,0.485301 0.04344,0.173772 0,0.423588 0,0.606626 0,0.07511 -0.200081,0.52787 -0.121326,0.606626 0.0143,0.0143 0.04636,-0.0143 0.06066,0 0.06509,0.06509 0.05762,0.241128 0.181988,0.303313 0.03617,0.01809 0.09273,-0.0286 0.121325,0 0.0143,0.0143 -0.0143,0.04637 0,0.06066 0.23675,0.23675 0.03258,-0.01404 0.181988,0.06066 0.147166,0.07358 0.501966,0.430635 0.545964,0.606626 0.01471,0.05885 -0.01667,0.123659 0,0.181988 0.04262,0.149177 0.278378,0.413844 0.181988,0.606626 -0.02987,0.05973 -0.353752,-0.07484 -0.424639,-0.06066 -0.481437,0.09629 0.232636,0.05644 -0.545963,0.121325 -0.120907,0.01008 -0.243715,-0.01603 -0.363976,0 -0.680749,0.09077 -0.390138,0.135796 -1.031265,0.242651 -0.949391,0.158232 -1.887768,0.218309 -2.851143,0.303313 -0.866388,0.07645 -1.738261,0.203095 -2.608492,0.242651 -0.545401,0.02479 -1.092194,-0.01705 -1.637891,0 -2.101034,0.06566 -4.207365,0.200765 -6.308913,0.06066 -0.7967,-0.05311 -1.574495,-0.151341 -2.365842,-0.24265 -0.342797,-0.03955 -1.471029,-0.100741 -1.759216,-0.121326 -0.93118,-0.06651 -1.859909,-0.176181 -2.79048,-0.24265 -0.703174,-0.05023 -1.420618,-0.0021 -2.123192,-0.06066 -0.306008,-0.0255 -0.608125,-0.08779 -0.909939,-0.121325 -0.806662,0 0.07051,0.03197 -0.485301,-0.06066 -0.09973,-0.01662 -0.231822,0.07149 -0.303314,0 -0.0143,-0.0143 0.0143,-0.04636 0,-0.06066 -0.125513,-0.125513 0.0049,0.1918 -0.121325,-0.06066 -0.009,-0.01809 0.0143,-0.04636 0,-0.06066 -0.07248,-0.07248 -0.264113,-0.125051 -0.303313,-0.242651 -0.01918,-0.05755 0.06066,-0.181988 0,-0.181988 -0.191748,0 0.171527,0.141546 0.06066,0.06066 C 30.267965,64.151242 30.130658,64.080572 30,64"
       id="path1" />
  </g>
  <g
     inkscape:label="Layer 1"
     inkscape:groupmode="layer"
     id="layer1">
    <g
       id="g5"
       inkscape:label="mouse and movement">
      <g
         id="g3699"
         transform="translate(1.448614,3.114008)"
         inkscape:label="mouse">
        <path
           style="fill:none;stroke:#ffffff;stroke-width:1;stroke-linecap:square;stop-color:#000000"
           d="m 30.551385,12.885992 v 3"
           id="path4096"
           sodipodi:nodetypes="cc"
           inkscape:label="button divider segment" />
        <path
           style="fill:none;stroke:#ffffff;stroke-width:1;stroke-linecap:square;stop-color:#000000"
           d="m 30.551385,23.885992 v 3"
           id="path4096-9"
           sodipodi:nodetypes="cc"
           inkscape:label="button divider segment" />
        <path
           style="fill:none;stroke:#ffffff;stroke-width:1;stroke-linecap:square;stop-color:#000000"
           d="m 19.301385,26.885992 h 22.5"
           id="path4098"
           sodipodi:nodetypes="cc"
           inkscape:label="divider" />
        <path
           style="fill:none;stroke:#ffffff;stroke-width:1;stroke-linecap:square;stop-color:#000000"
           d="m 28.551385,19.885992 c 0,-2 0,-4 2,-4 2,0 2,2 2,4 0,2 10e-7,4 -2,4 -1.999999,0 -2,-2 -2,-4 z"
           id="path4102"
           sodipodi:nodetypes="zszsz"
           inkscape:label="middle mouse button" />
        <path
           id="path4104"
           style="fill:none;stroke:#ffffff;stroke-linecap:square;stop-color:#000000"
           d="m 42.551386,28.885992 c 0,7.731986 -2.000001,16 -12,16 -10.000001,0 -12,-8.268014 -12,-16 0,-7.731986 1.999999,-16 12,-16 9.999999,0 12,8.268014 12,16 z"
           sodipodi:nodetypes="sssss"
           inkscape:label="body" />
      </g>
      <g
         id="g3604"
         transform="translate(-1.5004166,2.326335)"
         style="display:inline;stroke-width:1"
         inkscape:label="arrow left"
         sodipodi:insensitive="true">
        <path
           style="fill:none;stroke:#ffffff;stroke-width:1;stroke-linecap:square;stop-color:#000000"
           d="M 8.5115839,29.673665 H 20.500416"
           id="path3594"
           sodipodi:nodetypes="cc"
           inkscape:label="stem" />
        <path
           style="fill:none;stroke:#ffffff;stroke-width:1;stroke-linecap:square;stop-color:#000000"
           d="M 12.710586,33.54024 7.8742917,29.593304 12.666634,25.671743"
           id="path3596"
           sodipodi:nodetypes="ccc"
           inkscape:label="head" />
      </g>
      <use
         x="0"
         y="0"
         xlink:href="#g3604"
         id="use3606"
         transform="matrix(-1,0,0,1,66.999998,0)"
         style="display:inline;stroke-width:1"
         inkscape:label="arrow right" />
      <use
         x="0"
         y="0"
         xlink:href="#g3604"
         id="use3606-7"
         transform="matrix(0,1,1,0,-5.9e-7,-3.0055833)"
         style="display:inline;stroke-width:1"
         inkscape:label="arrow up" />
      <use
         x="0"
         y="0"
         xlink:href="#g3604"
         id="use3606-7-5"
         transform="rotate(-90,33.5,33.5)"
         style="display:inline;stroke-width:1"
         inkscape:label="arrow down" />
    </g>
    <g
       id="g6"
       inkscape:label="hand v1"
       transform="matrix(0.84823845,0,0,0.84823845,7.5056452,10.027294)"
       style="display:none;fill:#4d4d4d">
      <path
         style="display:none;fill:#4d4d4d;stroke:#ffffff;-inkscape-stroke:none"
         d="m 30,64 c -3.025011,-3.302883 -5.019929,-4.878993 -7,-9 -1.6077,-1.771677 -3.539485,-5.637154 -4,-7 -0.769461,-2.27714 -0.341853,-1.005305 -0.421878,-4.803836 0.321313,-3.005701 -1.268742,-8.910341 1.130549,-11.270639 1.832266,-1.677618 4.461816,0.06221 5.073827,2.09951 C 25.439921,35.848971 24.973897,39.279041 26,41 c 0.910856,1.878131 2.535746,2.123592 4.061991,3.53092 C 32.810341,44.750041 31.182929,40.774231 31,39 30.765562,34.703404 29.872227,30.472617 27,27 c -1.487838,-2.011858 -5.712075,-4.669698 -3.887539,-6.496037 1.824536,-1.826339 4.042136,-1.443739 5.436487,-0.07517 2.397674,1.645297 4.40618,3.875211 5.990741,6.297158 1.452178,2.77974 1.143589,6.034481 2.061947,8.971345 2.594679,1.342386 2.144139,-2.808784 1.615778,-4.2661 -0.930284,-3.07527 -2.786119,-6.488971 -4.497982,-8.45002 -1.711863,-1.961049 -4.040709,-3.973024 -1.736692,-5.545164 2.304017,-1.57214 5.694737,0.02242 6.787962,2.393269 4.489371,4.689378 6.448897,11.296562 6.549513,17.679244 1.145847,-5.104297 -1.647561,-10.015152 -4.702058,-13.884099 -0.897393,-1.582345 -4.21872,-4.032263 -2.21872,-6.032263 2,-2 3.85889,-0.195115 5.213234,1.515025 4.236813,3.875743 4.863647,9.889894 6.976034,14.934805 0.466617,0.985796 1.415414,5.230951 0.420254,2.202804 C 50.389464,31.131783 40,24 43,21 c 4,-4 9.684547,8.748326 11.163788,11.979899 1.230068,2.649539 2.137324,5.535086 1.81029,8.490358 C 54,48 56,48 55.976404,64.839967 47.787657,66.26981 39.453471,65.517326 31.23456,64.808081 30.560432,65.026561 30.504478,64.162656 30,64 Z"
         id="path1-3"
         inkscape:label="hand original"
         sodipodi:nodetypes="ccsccccccczcccczzccczcccsccccc" />
      <path
         d="m 40.222656,16.712891 c -0.586344,8.65e-4 -1.19727,0.25391 -1.822265,0.878906 -0.295745,0.295744 -0.464662,0.602902 -0.552735,0.914062 -1.503365,-1.561034 -4.028259,-2.323767 -5.865234,-1.070312 -2.304001,1.572129 0.02448,3.583886 1.736328,5.544922 1.711851,1.961035 3.567769,5.375923 4.498047,8.451172 0.528357,1.457305 0.979426,5.608001 -1.615235,4.265625 -0.918351,-2.936844 -0.610332,-6.190983 -2.0625,-8.970704 -1.584549,-2.42193 -3.592577,-4.651589 -5.990234,-6.296875 -1.394341,-1.368559 -3.611024,-1.752107 -5.435547,0.07422 C 21.288758,22.330232 25.512172,24.988156 27,27 c 2.872207,3.472593 3.765564,7.703434 4,12 0.182928,1.774219 1.810831,5.750369 -0.9375,5.53125 C 28.536266,43.123932 26.91085,42.878118 26,41 24.973904,39.279053 25.440622,35.849314 24.783203,34.025391 24.171196,31.988105 21.541238,30.248175 19.708984,31.925781 17.30971,34.286063 18.899436,40.189633 18.578125,43.195312 18.658149,46.993817 18.230544,45.722876 19,48 c 0.460512,1.362836 2.392311,5.228335 4,7 1.980057,4.120978 2.97501,4.69714 6,8 H 56 C 56.0236,46.160151 54.000545,48.0004 55.974562,41.470703 56.301594,38.515452 55.394075,35.629989 54.164015,32.980469 52.883405,30.182827 48.451994,20.261135 44.689406,20.240234 44.355331,19.847726 44.005018,19.465817 43.613234,19.107422 42.682129,17.931709 41.512566,16.710986 40.222609,16.712891 Z"
         style="display:inline;fill:#4d4d4d;stroke:none"
         id="path5"
         inkscape:label="hand fill"
         sodipodi:nodetypes="cscssccccscccccccsccccccccc" />
      <path
         style="display:inline;fill:#4d4d4d;stroke:#ffffff;-inkscape-stroke:none"
         d="m 44.545991,20.234997 c 3.792365,-0.234869 8.321015,9.911932 9.617797,12.744902 1.230068,2.649539 2.137324,5.535086 1.81029,8.490358 C 54.051577,47.829395 56.015751,51.763838 56,63 H 29 c -3.025011,-3.302883 -4.019929,-3.878993 -6,-8 -1.6077,-1.771677 -3.539485,-5.637154 -4,-7 -0.769461,-2.27714 -0.341853,-1.005305 -0.421878,-4.803836 0.321313,-3.005701 -1.268742,-8.910341 1.130549,-11.270639 1.832266,-1.677618 4.461816,0.06221 5.073827,2.09951 C 25.439921,35.848971 24.973897,39.279041 26,41 c 0.910856,1.878131 2.535746,2.123592 4.061991,3.53092 C 32.810341,44.750041 31.182929,40.774231 31,39 30.765562,34.703404 29.872227,30.472617 27,27 c -1.487838,-2.011858 -5.712075,-4.669698 -3.887539,-6.496037 1.824536,-1.826339 4.042136,-1.443739 5.436487,-0.07517 2.397674,1.645297 4.40618,3.875211 5.990741,6.297158 1.452178,2.77974 1.143589,6.034481 2.061947,8.971345 2.594679,1.342386 2.144139,-2.808784 1.615778,-4.2661 -0.930284,-3.07527 -2.786119,-6.488971 -4.497982,-8.45002 -1.711863,-1.961049 -4.040709,-3.973024 -1.736692,-5.545164 2.304017,-1.57214 5.694737,0.02242 6.787962,2.393269 4.489371,4.689378 6.448897,11.296562 6.549513,17.679244 M 37.830931,18.523791 c 0.08607,-0.31777 0.2667,-0.629822 0.568506,-0.931628 2,-2 3.85889,-0.195115 5.213234,1.515025 4.236813,3.875743 4.863647,9.889894 6.976034,14.934805 0.299275,0.632261 0.796897,2.605282 0.852775,3.140205"
         id="path1-3-6"
         inkscape:label="hand stroke"
         sodipodi:nodetypes="ccccccsccccccczcccczzcccsccc" />
    </g>
    <g
       id="g7"
       inkscape:label="hand v2">
      <path
         style="fill:#4d4d4d;fill-opacity:1;fill-rule:nonzero;stroke:#ffffff;-inkscape-stroke:none"
         d="M 32,63 C 32,63 25.133038,51.99557 25,50 L 23.472906,43 C 23.461073,42.035965 23.889387,41.358925 24,40 c 0.118866,-1.460319 -0.07643,-3.615892 0,-5 0,0 5,0 5,3 v 6 c 0,2 3,4 4,4 1,0 2,0 2,-1 V 41 C 35,40.644095 34.23999,36.654849 33.215871,35.483079 31.362482,33.362482 28.644095,30.644095 28,30 27,29 27.022097,27.116117 28.0221,26.116117 29.022097,25.116117 30.828641,25 32,26 c -0.149262,-1.298311 0,-2.37565 1,-3 1.199602,-0.748971 3,0 4,1 l 2,2 c 0,0 -0.425206,-1.5 0.574794,-2.5 1,-1 2.576678,-0.631371 3.425206,0.5 l 3,4 c 0,0 -0.151205,-1.424398 1,-2 2,-1 4.817482,4.62588 5,5 0.487858,1 2.035456,6.236811 3,9.40625 C 55.345413,42.274422 55,43 55,46 v 17 z"
         id="path6"
         inkscape:label="hand"
         sodipodi:nodetypes="cscscsssssssscsccsscsssscc" />
      <path
         id="path9"
         style="fill:#4d4d4d;fill-opacity:1;fill-rule:nonzero;stroke:#ffffff;-inkscape-stroke:none"
         d="m 46,28 c 0,0 2.095179,2.919938 2.53125,4 C 48.912909,32.945295 50,40 50,40 M 39,26 c 0,0 4.556424,5.014257 5,6 0.582452,1.294361 1,8 1,8 M 32,26 c 0,0 6.464592,7 7,8 0.648718,1.211633 1,6 1,6"
         inkscape:label="finger overlap lines"
         sodipodi:nodetypes="csccsccsc" />
    </g>
  </g>
</svg>
