<?xml version="1.0" encoding="UTF-8" standalone="no"?>
<!-- Created with Inkscape (http://www.inkscape.org/) -->

<svg
   width="64.0px"
   height="64.0px"
   viewBox="0 0 64.0 64.0"
   version="1.1"
   id="SVGRoot"
   sodipodi:docname="manual-takeback.svg"
   inkscape:version="1.3.2 (091e20e, 2023-11-25, custom)"
   xmlns:inkscape="http://www.inkscape.org/namespaces/inkscape"
   xmlns:sodipodi="http://sodipodi.sourceforge.net/DTD/sodipodi-0.dtd"
   xmlns="http://www.w3.org/2000/svg"
   xmlns:svg="http://www.w3.org/2000/svg">
  <sodipodi:namedview
     id="namedview1054"
     pagecolor="#505050"
     bordercolor="#ffffff"
     borderopacity="1"
     inkscape:showpageshadow="true"
     inkscape:pageopacity="0"
     inkscape:pagecheckerboard="true"
     inkscape:deskcolor="#505050"
     inkscape:document-units="px"
     showgrid="false"
     inkscape:zoom="8.0000001"
     inkscape:cx="20.8125"
     inkscape:cy="35.8125"
     inkscape:current-layer="layer1"
     inkscape:window-width="1920"
     inkscape:window-height="1009"
     inkscape:window-x="-8"
     inkscape:window-y="-8"
     inkscape:window-maximized="1"
     inkscape:clip-to-page="false">
    <inkscape:grid
       type="xygrid"
       id="grid1540"
       empspacing="8"
       originx="0"
       originy="0"
       spacingy="1"
       spacingx="1"
       units="px"
       visible="false"
       empcolor="#0099e5"
       empopacity="0.55686275"
       color="#0099e5"
       opacity="0.29803922" />
  </sodipodi:namedview>
  <defs
     id="defs1049" />
  <g
     inkscape:label="Layer 1"
     inkscape:groupmode="layer"
     id="layer1">
    <path
       id="path4104"
       style="fill:none;stroke:#ffffff;stroke-linecap:square;stop-color:#000000"
       inkscape:label="mouse"
       d="M 31.999999 16 L 31.999999 19 " />
    <path
       id="path30"
       style="fill:none;stroke:#ffffff;stroke-linecap:round;stop-color:#000000"
       inkscape:label="mouse"
       d="M 20.749999 30 L 27.999999 30 " />
    <path
       id="path29"
       style="fill:none;stroke:#ffffff;stroke-linecap:square;stop-color:#000000"
       inkscape:label="mouse"
       d="M 30.13762 25.321063 C 29.999999 24.639123 29.999999 23.81956 29.999999 23 C 29.999999 21.000002 30.000001 19 31.999999 19 C 33.899211 19 33.99492 20.803509 33.999743 22.697898 " />
    <path
       id="path26"
       style="fill:none;stroke:#ffffff;stroke-linecap:round;stop-color:#000000"
       inkscape:label="mouse"
       d="M 23.926371 45.094776 C 20.801453 42.003936 20 36.894562 20 32 C 20 24.268022 22.000009 16 32 16 C 38.458981 16 41.580495 19.449298 42.981274 23.975549 " />
    <path
       style="fill:none;stroke:#ffffff;stroke-width:1;stroke-linecap:square;stop-color:#000000"
       d="M 7.0111673,32 H 18.999999"
       id="path3594"
       sodipodi:nodetypes="cc"
       inkscape:label="stem" />
    <path
       style="fill:none;stroke:#ffffff;stroke-width:1;stroke-linecap:square;stop-color:#000000"
       d="M 11.210169,35.866575 6.3738751,31.919639 11.166217,27.998078"
       id="path3596"
       sodipodi:nodetypes="ccc"
       inkscape:label="head" />
    <path
       style="fill:none;stroke:#ffffff;stroke-width:1;stroke-linecap:square;stop-color:#000000"
       d="M 59.988831,32 H 53"
       id="path20"
       sodipodi:nodetypes="cc"
       inkscape:label="stem" />
    <path
       style="fill:none;stroke:#ffffff;stroke-width:1;stroke-linecap:square;stop-color:#000000"
       d="m 55.789829,35.866575 4.836294,-3.946936 -4.792342,-3.921561"
       id="path21"
       sodipodi:nodetypes="ccc"
       inkscape:label="head" />
    <path
       style="fill:none;stroke:#ffffff;stroke-width:1;stroke-linecap:square;stop-color:#000000"
       d="M 31.999999,4.005584 V 15.994416"
       id="path18"
       sodipodi:nodetypes="cc"
       inkscape:label="stem" />
    <path
       style="fill:none;stroke:#ffffff;stroke-width:1;stroke-linecap:square;stop-color:#000000"
       d="M 35.866574,8.2045861 31.919638,3.3682918 27.998077,8.1606341"
       id="path19"
       sodipodi:nodetypes="ccc"
       inkscape:label="head" />
    <path
       id="path9"
       style="fill:none;fill-opacity:1;fill-rule:nonzero;stroke:#ffffff;-inkscape-stroke:none"
       d="m 46,28 c 0,0 2.095179,2.919938 2.53125,4 C 48.912909,32.945295 50,40 50,40 M 39,26 c 0,0 4.556424,5.014257 5,6 0.582452,1.294361 1,8 1,8 M 32,26 c 0,0 6.464592,7 7,8 0.648718,1.211633 1,6 1,6"
       inkscape:label="finger overlap lines"
       sodipodi:nodetypes="csccsccsc" />
    <path
       style="display:inline;fill:none;fill-opacity:1;fill-rule:nonzero;stroke:#ffffff;-inkscape-stroke:none"
       d="M 32,63 C 32,63 25.133038,51.99557 25,50 L 23.472906,43 C 23.461073,42.035965 23.889387,41.358925 24,40 c 0.118866,-1.460319 -0.07643,-3.615892 0,-5 0,0 5,0 5,3 v 6 c 0,2 3,4 4,4 1,0 2,0 2,-1 V 41 C 35,40.644095 34.23999,36.654849 33.215871,35.483079 31.362482,33.362482 28.644095,30.644095 28,30 27,29 27.022097,27.116117 28.0221,26.116117 29.022097,25.116117 30.828641,25 32,26 c -0.149262,-1.298311 0,-2.37565 1,-3 1.199602,-0.748971 3,0 4,1 l 2,2 c 0,0 -0.425206,-1.5 0.574794,-2.5 1,-1 2.576678,-0.631371 3.425206,0.5 l 3,4 c 0,0 -0.151205,-1.424398 1,-2 2,-1 4.817482,4.62588 5,5 0.487858,1 2.035456,6.236811 3,9.40625 C 55.345413,42.274422 55,43 55,46 v 17 z"
       id="path6"
       inkscape:label="hand"
       sodipodi:nodetypes="cscscsssssssscsccsscsssscc" />
  </g>
</svg>
